<?xml version="1.0" encoding="UTF-8"?>
<svg xmlns="http://www.w3.org/2000/svg" xmlns:xlink="http://www.w3.org/1999/xlink" viewBox="0 0 128 128" width="128px" height="128px">
<g id="surface76264911">
<path style=" stroke:none;fill-rule:nonzero;fill:rgb(17.254902%,80.784315%,100%);fill-opacity:1;" d="M 104.28125 15.984375 C 102.9375 16.046875 101.671875 16.4375 100.546875 16.875 L 100.53125 16.875 C 99.390625 17.328125 93.96875 19.609375 85.734375 23.0625 C 77.5 26.53125 66.8125 31.03125 56.203125 35.5 C 35.015625 44.421875 14.1875 53.203125 14.1875 53.203125 L 14.4375 53.109375 C 14.4375 53.109375 13 53.578125 11.5 54.609375 C 10.734375 55.109375 9.890625 55.796875 9.15625 56.875 C 8.421875 57.953125 7.828125 59.609375 8.046875 61.3125 C 8.40625 64.203125 10.28125 65.9375 11.625 66.890625 C 12.984375 67.859375 14.28125 68.3125 14.28125 68.3125 L 14.3125 68.3125 L 33.84375 74.890625 C 34.71875 77.703125 39.796875 94.390625 41.015625 98.234375 C 41.734375 100.53125 42.4375 101.96875 43.3125 103.0625 C 43.734375 103.625 44.234375 104.09375 44.828125 104.46875 C 45.0625 104.609375 45.3125 104.71875 45.5625 104.8125 C 45.640625 104.859375 45.71875 104.875 45.8125 104.890625 L 45.609375 104.84375 C 45.671875 104.859375 45.71875 104.90625 45.765625 104.921875 C 45.921875 104.96875 46.03125 104.984375 46.234375 105.015625 C 49.328125 105.953125 51.8125 104.03125 51.8125 104.03125 L 51.953125 103.921875 L 63.484375 93.421875 L 82.8125 108.25 L 83.25 108.4375 C 87.28125 110.203125 91.359375 109.21875 93.515625 107.484375 C 95.6875 105.734375 96.53125 103.5 96.53125 103.5 L 96.671875 103.140625 L 111.609375 26.625 C 112.03125 24.734375 112.140625 22.96875 111.671875 21.25 C 111.203125 19.53125 110 17.921875 108.546875 17.0625 C 107.078125 16.1875 105.625 15.921875 104.28125 15.984375 Z M 103.875 24.1875 C 103.859375 24.4375 103.90625 24.40625 103.796875 24.890625 L 103.796875 24.9375 L 89 100.65625 C 88.9375 100.765625 88.828125 101 88.53125 101.234375 C 88.21875 101.484375 87.96875 101.640625 86.671875 101.125 L 63.03125 83 L 48.75 96.015625 L 51.75 76.859375 C 51.75 76.859375 88.78125 42.34375 90.375 40.859375 C 91.96875 39.375 91.4375 39.0625 91.4375 39.0625 C 91.546875 37.25 89.03125 38.53125 89.03125 38.53125 L 40.328125 68.703125 L 40.3125 68.625 L 16.96875 60.765625 L 16.96875 60.75 C 16.953125 60.75 16.921875 60.734375 16.90625 60.734375 C 16.921875 60.734375 17.03125 60.6875 17.03125 60.6875 L 17.15625 60.625 L 17.28125 60.578125 C 17.28125 60.578125 38.125 51.796875 59.3125 42.875 C 69.921875 38.40625 80.609375 33.90625 88.828125 30.4375 C 97.046875 26.984375 103.125 24.453125 103.46875 24.3125 C 103.796875 24.1875 103.640625 24.1875 103.875 24.1875 Z M 103.875 24.1875 "/>
</g>
</svg>
